<svg width="264" height="158" viewBox="0 0 264 158" fill="none" xmlns="http://www.w3.org/2000/svg">
<path d="M45.8789 156.182V131.66H0V107.49L29.2676 1.31836H77.4316V105.82H85.6934V131.66H77.4316V156.182H45.8789ZM27.5977 105.82H45.8789V27.8613L27.5977 105.82Z" fill="black"/>
<path d="M131.836 157.5C118.77 157.5 108.662 153.838 101.514 146.514C94.4238 139.189 90.8789 128.643 90.8789 114.873V45.0879C90.8789 30.5566 94.248 19.4238 100.986 11.6895C107.783 3.89648 118.066 0 131.836 0C145.664 0 155.947 3.89648 162.686 11.6895C169.424 19.4238 172.793 30.5566 172.793 45.0879V114.873C172.793 128.643 169.248 139.189 162.158 146.514C155.068 153.838 144.961 157.5 131.836 157.5ZM131.836 129.023C134.238 129.023 136.113 127.939 137.461 125.771C138.809 123.604 139.482 121.172 139.482 118.477V42.0996C139.482 38.4668 139.072 35.3027 138.252 32.6074C137.49 29.8535 135.352 28.4766 131.836 28.4766C128.32 28.4766 126.152 29.8535 125.332 32.6074C124.57 35.3027 124.189 38.4668 124.189 42.0996V118.477C124.189 121.172 124.863 123.604 126.211 125.771C127.617 127.939 129.492 129.023 131.836 129.023Z" fill="black"/>
<path d="M223.77 156.182V131.66H177.891V107.49L207.158 1.31836H255.322V105.82H263.584V131.66H255.322V156.182H223.77ZM205.488 105.82H223.77V27.8613L205.488 105.82Z" fill="black"/>
</svg>
