<?xml version="1.0" encoding="UTF-8" standalone="no"?><!DOCTYPE svg PUBLIC "-//W3C//DTD SVG 1.1//EN" "http://www.w3.org/Graphics/SVG/1.1/DTD/svg11.dtd"><svg width="100%" height="100%" viewBox="0 0 1709 495" version="1.1" xmlns="http://www.w3.org/2000/svg" xmlns:xlink="http://www.w3.org/1999/xlink" xml:space="preserve" xmlns:serif="http://www.serif.com/" style="fill-rule:evenodd;clip-rule:evenodd;stroke-linejoin:round;stroke-miterlimit:2;"><g><g><g><path d="M673.729,47.266c-3.981,2.16 -8.967,0.681 -11.127,-3.3c-2.16,-3.981 -0.681,-8.967 3.3,-11.127c22.204,-12.046 57.06,-34.004 123.048,-32.791c136.35,0.024 247.042,110.73 247.042,247.086c0,136.371 -110.716,247.086 -247.086,247.086c-136.371,0 -247.086,-110.716 -247.086,-247.086c0,-33.569 4.95,-64.059 18.867,-94.783c1.869,-4.126 6.736,-5.958 10.862,-4.089c4.126,1.869 5.958,6.736 4.089,10.862c-12.919,28.522 -17.404,56.848 -17.404,88.01c0,127.312 103.361,230.673 230.673,230.673c127.312,0 230.673,-103.361 230.673,-230.673c0,-127.312 -103.361,-230.673 -230.673,-230.673l-0.153,-0.001c-61.731,-1.151 -94.269,19.547 -115.023,30.806Z"/><path d="M729.463,110.446c8.04,14.886 8.537,24.061 8.668,26.481c0.194,3.589 1.075,19.844 -14.906,42.378c-38.238,53.919 -69.832,44.323 -88.895,40.003l1.358,1.647l-98.751,-93.224l-0.45,-1.216l-0.145,-0.132c-9.288,-8.481 -9.323,-25.029 -1.817,-43.736c5.242,-13.066 14.163,-27.185 26.178,-40.344c29.22,-32.002 68.446,-45.18 84.221,-30.777l84.54,98.919Zm0,0c-0.839,-1.553 -1.76,-3.168 -2.771,-4.844l3.311,5.476l-0.54,-0.632Zm-87.092,-90.079c-15.854,-14.476 -49.115,-3.899 -74.228,23.605c-25.113,27.504 -32.631,61.587 -16.777,76.063c15.854,14.476 49.115,3.899 74.228,-23.605c25.113,-27.504 32.631,-61.587 16.777,-76.063Zm12.369,40.245l75.263,80.862l-3.272,-21.96l-65.446,-71.991l-6.545,13.089Zm-13.615,33.294l-14.638,15.873c-0.673,0.73 -0.662,1.857 0.025,2.574l74.041,77.26l13.089,-14.47l-71.478,-81.225c-0.131,-0.149 -0.319,-0.235 -0.517,-0.237c-0.198,-0.002 -0.388,0.079 -0.522,0.225Zm13.615,120.505l-75.263,-78.536l-13.089,5.599l78.536,72.937l9.817,0Z" style="fill:#020202;"/><path d="M726.351,103.446c0.85,-0.134 1.736,0.245 2.209,1.027l3.31,5.475c0.18,0.297 0.282,0.626 0.308,0.961c7.55,14.513 8,23.479 8.131,25.9c0.201,3.703 1.186,20.504 -15.305,43.758c-19.552,27.57 -37.482,38.808 -52.884,42.695c-13.65,3.445 -25.385,1.117 -34.683,-1.003c-0.077,0.103 -0.163,0.2 -0.26,0.29c-0.842,0.787 -2.15,0.784 -2.987,-0.007l-98.751,-93.224c0.405,0.382 0.941,0.595 1.498,0.595c0.894,0 1.697,-0.545 2.027,-1.376c0.207,-0.521 0.202,-1.088 0.009,-1.59l-2.036,2.966l-2.056,-1.453l-0.257,-0.695c-3.921,-3.694 -6.325,-8.718 -7.252,-14.72c-1.345,-8.711 0.454,-19.562 5.128,-31.21c5.327,-13.277 14.382,-27.63 26.592,-41.003c17.883,-19.585 39.469,-32.213 57.329,-36.044c12.49,-2.679 23.222,-1.037 29.974,5.127c0.066,0.061 0.129,0.125 0.187,0.194l79.77,93.336Zm-189.864,25.251l2.059,-2.904l0.26,0.703l96.079,90.701c9.264,2.103 21.555,5.522 36.168,1.834c14.72,-3.715 31.706,-14.639 50.393,-40.988c15.471,-21.815 14.695,-37.524 14.507,-40.999c-0.126,-2.326 -0.639,-11.103 -8.3,-25.36l-84.31,-98.645c-5.876,-5.273 -15.217,-6.3 -26.007,-3.985c-17.159,3.681 -37.841,15.903 -55.022,34.72c-11.821,12.947 -20.607,26.831 -25.765,39.686c-3.625,9.036 -5.457,17.544 -5.233,24.824c0.211,6.875 2.257,12.616 6.493,16.485l0.138,0.125l-1.46,3.803Zm118.253,87.896l-9.817,-0c-0.551,0 -1.081,-0.208 -1.485,-0.583l-78.536,-72.937c-0.541,-0.503 -0.791,-1.245 -0.665,-1.972c0.126,-0.728 0.612,-1.342 1.291,-1.632l13.089,-5.599c0.835,-0.357 1.804,-0.16 2.433,0.496l75.263,78.536c0.605,0.631 0.774,1.562 0.431,2.366c-0.343,0.804 -1.133,1.325 -2.006,1.325Zm-5.112,-4.363l-70.682,-73.755l-8.615,3.685l75.448,70.07l3.848,0Zm-5.786,-193.474c6.799,6.208 9.704,15.741 8.881,26.878c-1.18,15.974 -10.071,35.35 -25.518,52.266c-15.447,16.917 -33.936,27.528 -49.737,30.152c-11.017,1.83 -20.774,-0.199 -27.573,-6.407c-6.799,-6.208 -9.704,-15.741 -8.881,-26.878c1.18,-15.974 10.071,-35.35 25.518,-52.266c15.447,-16.917 33.936,-27.528 49.737,-30.152c11.017,-1.83 20.774,0.199 27.573,6.407Zm-2.942,3.222c-5.885,-5.373 -14.38,-6.908 -23.916,-5.325c-15.027,2.496 -32.54,12.702 -47.23,28.79c-14.69,16.088 -23.266,34.454 -24.388,49.646c-0.712,9.64 1.587,17.962 7.472,23.335c5.885,5.373 14.38,6.908 23.916,5.325c15.027,-2.496 32.54,-12.702 47.23,-28.79c14.69,-16.088 23.266,-34.454 24.388,-49.646c0.712,-9.64 -1.587,-17.962 -7.472,-23.335Zm-1.379,70.449l0.455,-0.399l0.522,-0.293l0.572,-0.179l0.603,-0.057l0.601,0.071l0.567,0.192l0.515,0.305l0.445,0.41l71.478,81.225c0.733,0.833 0.724,2.082 -0.02,2.905l-13.089,14.47c-0.406,0.449 -0.981,0.709 -1.586,0.718c-0.606,0.009 -1.187,-0.235 -1.606,-0.672l-74.041,-77.26l-0.487,-0.618l-0.352,-0.684l-0.214,-0.725l-0.076,-0.744l0.062,-0.745l0.2,-0.729l0.339,-0.691l0.475,-0.627l14.638,-15.873Zm-11.238,18.622l72.223,75.363l10.212,-11.289l-69.105,-78.529l-13.33,14.454Zm24.506,-51.412l6.545,-13.089c0.322,-0.644 0.94,-1.087 1.653,-1.185c0.713,-0.098 1.428,0.161 1.912,0.694l65.446,71.991c0.291,0.32 0.48,0.719 0.544,1.146l3.272,21.96c0.141,0.945 -0.35,1.872 -1.211,2.287c-0.861,0.415 -1.892,0.22 -2.543,-0.479l-75.263,-80.862c-0.62,-0.666 -0.761,-1.648 -0.354,-2.462Zm4.579,0.597l69.441,74.607l-2.138,-14.35l-62.859,-69.145l-4.444,8.888Z"/><path d="M629.247,31.606c9.318,8.508 1.18,32.613 -18.162,53.796c-19.342,21.183 -42.61,31.474 -51.927,22.966c-9.318,-8.508 -1.18,-32.613 18.162,-53.796c19.342,-21.183 42.61,-31.474 51.927,-22.966Zm-22.708,22.522c-3.78,-3.18 -12.376,0.81 -19.185,8.904c-6.809,8.094 -9.268,17.246 -5.488,20.426c3.78,3.18 12.376,-0.81 19.185,-8.904c6.809,-8.094 9.268,-17.246 5.488,-20.426Z" style="fill:#040000;"/><path d="M630.718,29.995c4.2,3.835 5.514,10.43 3.87,18.555c-2.247,11.106 -9.973,25.27 -21.892,38.323c-11.919,13.054 -25.324,22.032 -36.18,25.277c-7.942,2.374 -14.629,1.664 -18.829,-2.171c-4.2,-3.835 -5.514,-10.43 -3.87,-18.555c2.247,-11.106 9.973,-25.27 21.892,-38.323c11.919,-13.054 25.324,-22.032 36.18,-25.277c7.942,-2.374 14.629,-1.664 18.829,2.171Zm-2.942,3.222c-3.255,-2.972 -8.483,-3.052 -14.638,-1.213c-10.284,3.074 -22.917,11.673 -34.208,24.039c-11.291,12.366 -18.709,25.726 -20.838,36.247c-1.274,6.296 -0.72,11.495 2.535,14.467c3.255,2.972 8.483,3.052 14.638,1.213c10.284,-3.074 22.917,-11.673 34.208,-24.039c11.291,-12.366 18.709,-25.726 20.838,-36.247c1.274,-6.296 0.719,-11.495 -2.535,-14.467Zm-19.833,19.242c2.002,1.684 2.901,4.571 2.42,8.19c-0.587,4.414 -3.245,10.081 -7.643,15.31c-4.399,5.229 -9.527,8.817 -13.776,10.151c-3.483,1.094 -6.481,0.701 -8.483,-0.982c-2.002,-1.684 -2.901,-4.571 -2.42,-8.19c0.587,-4.414 3.245,-10.081 7.643,-15.31c4.399,-5.229 9.527,-8.817 13.776,-10.151c3.483,-1.094 6.481,-0.701 8.483,0.982Zm-2.809,3.339c-1.024,-0.862 -2.585,-0.718 -4.367,-0.159c-3.643,1.144 -7.972,4.313 -11.744,8.797c-3.772,4.484 -6.153,9.291 -6.657,13.077c-0.246,1.852 -0.121,3.414 0.904,4.275c1.024,0.862 2.585,0.718 4.367,0.159c3.643,-1.144 7.972,-4.313 11.744,-8.797c3.772,-4.484 6.153,-9.291 6.657,-13.077c0.246,-1.852 0.121,-3.414 -0.904,-4.275Z"/><path d="M868.962,50.352c-15.467,-0.027 -11.292,11.887 -9.488,13.891c5.967,6.629 18.157,7.13 20.984,-0.061c4.109,-10.452 -10.09,-13.526 -11.496,-13.83Z"/><path d="M869.366,48.484c0.762,0.165 4.983,1.092 8.462,3.381c2.32,1.526 4.287,3.645 4.998,6.42c0.479,1.869 0.409,4.055 -0.59,6.597c-1.381,3.512 -4.537,5.595 -8.358,6.224c-5.27,0.867 -11.807,-1.118 -15.826,-5.584c-0.668,-0.743 -1.658,-2.561 -2.12,-4.778c-0.459,-2.207 -0.4,-4.779 0.808,-7.003c1.533,-2.823 4.984,-5.312 12.224,-5.3c0.135,0 0.269,0.015 0.401,0.043Zm-0.608,3.78l-0.009,-0c-5,0.026 -7.576,1.326 -8.649,3.301c-0.757,1.394 -0.713,3.016 -0.425,4.399c0.286,1.373 0.805,2.54 1.219,3c3.141,3.489 8.246,5.047 12.364,4.369c2.438,-0.401 4.54,-1.609 5.421,-3.85c0.644,-1.639 0.754,-3.043 0.445,-4.249c-0.471,-1.836 -1.861,-3.166 -3.396,-4.176c-2.716,-1.787 -5.975,-2.574 -6.969,-2.795Z"/><path d="M799.756,33.066c-3.72,0.868 -13.325,2.351 -13.361,11.1c-0.04,9.75 22.011,9.773 21.755,-3.678c-0.071,-3.745 -3.018,-7.825 -10.08,-7.257"/><path d="M796.828,31.778c0.296,-0.254 0.672,-0.42 1.089,-0.453c0.386,-0.031 0.761,-0.05 1.126,-0.056c0.096,-0.022 0.189,-0.043 0.278,-0.064c0.409,-0.095 0.818,-0.051 1.178,0.101c2.853,0.205 4.979,1.182 6.487,2.494c2.066,1.798 3.03,4.276 3.075,6.651c0.178,9.401 -8.84,13.358 -16.199,12.401c-5.241,-0.681 -9.399,-3.841 -9.379,-8.695c0.021,-5.222 2.865,-8.296 6.292,-10.174c2.002,-1.097 4.212,-1.754 6.052,-2.206Zm2.625,3.314c-1.807,0.393 -4.491,0.958 -6.84,2.245c-2.315,1.268 -4.292,3.31 -4.306,6.837c-0.012,2.951 2.862,4.473 6.049,4.888c5.278,0.686 12.012,-1.795 11.884,-8.538c-0.051,-2.685 -2.154,-5.375 -6.786,-5.432Z"/><path d="M739.649,40.779c-8.876,0.587 -19.887,1.892 -16.314,13.21c2.611,8.271 13.409,11.344 19.026,5.946c4.848,-4.658 5.522,-15.14 0.761,-18.373c-4.301,-2.92 -11.8,0.69 -10.943,0.059"/><path d="M731.701,39.77c0.078,-0.018 0.157,-0.033 0.235,-0.045c0.113,-0.021 0.226,-0.042 0.34,-0.062c0.982,-0.304 3.317,-0.97 5.352,-1.124c2.262,-0.171 4.662,0.148 6.567,1.442c2.334,1.584 3.714,4.533 4.016,7.935c0.418,4.715 -1.233,10.233 -4.526,13.398c-2.663,2.558 -6.296,3.547 -9.909,3.142c-5.271,-0.591 -10.459,-4.172 -12.264,-9.891c-1.288,-4.081 -0.872,-7.073 0.453,-9.289c1.321,-2.211 3.626,-3.712 6.471,-4.664c1.026,-0.344 2.126,-0.618 3.265,-0.84Zm8.813,2.713c-0.224,0.114 -0.473,0.185 -0.739,0.203c-2.176,0.144 -4.488,0.325 -6.663,0.704c-0.332,0.105 -0.56,0.178 -0.655,0.193l-0.412,0.012c-0.832,0.176 -1.636,0.386 -2.395,0.64c-1.901,0.636 -3.521,1.523 -4.404,3c-0.88,1.472 -0.945,3.467 -0.089,6.178c1.328,4.206 5.168,6.808 9.045,7.243c2.485,0.279 5.003,-0.34 6.834,-2.099c2.524,-2.426 3.687,-6.69 3.367,-10.304c-0.191,-2.152 -0.879,-4.107 -2.355,-5.109c-0.47,-0.319 -0.99,-0.53 -1.534,-0.66Z"/><path d="M931.48,83.717c-2.946,-2.881 -13.984,-3.41 -11.47,12.287c0.839,5.238 9.071,6.89 12.411,4.716c0.471,-0.307 8.203,-7.29 -0.941,-17.002Z"/><path d="M932.872,82.406c4.166,4.425 5.157,8.396 4.932,11.539c-0.362,5.047 -3.995,8.15 -4.34,8.375c-2.047,1.333 -5.586,1.623 -8.75,0.647c-3.287,-1.014 -6.058,-3.326 -6.592,-6.662c-1.148,-7.166 0.408,-11.326 2.629,-13.58c2.234,-2.267 5.266,-2.807 7.83,-2.37c1.771,0.302 3.301,1.08 4.235,1.994l0.055,0.056Zm-2.751,2.655l-0.023,-0.021c-0.485,-0.447 -1.278,-0.765 -2.16,-0.915c-1.456,-0.249 -3.195,-0.003 -4.464,1.285c-1.672,1.696 -2.441,4.898 -1.577,10.292c0.305,1.904 2.068,3.035 3.944,3.613c1.998,0.616 4.244,0.645 5.537,-0.197c0.26,-0.169 3.194,-2.958 2.538,-7.211c-0.311,-2.015 -1.419,-4.311 -3.795,-6.844Z"/><path d="M982.218,148.428c3.155,1.265 -4.949,-4.821 -11.579,8.665c-3.374,6.862 7.422,11.517 12.549,8.173c3.149,-2.054 9.858,-14.833 -1.821,-17.025"/><path d="M983.972,146.964c2.151,0.773 3.586,1.957 4.51,3.315c1.812,2.661 1.69,6.181 0.596,9.361c-1.159,3.369 -3.378,6.27 -4.846,7.228c-3.095,2.019 -7.904,1.751 -11.427,-0.185c-3.824,-2.101 -6.092,-5.936 -3.882,-10.432c4.907,-9.981 10.783,-10.343 13.226,-9.944c0.955,0.156 1.579,0.485 1.822,0.659Zm-1.571,3.501l-0.131,-0.013c-0.154,-0.036 -0.365,-0.098 -0.633,-0.2c-0.2,-0.048 -0.407,-0.092 -0.621,-0.132c-0.112,-0.021 -0.221,-0.052 -0.324,-0.091c-1.917,0.102 -5.21,1.548 -8.336,7.907c-1.164,2.368 0.278,4.289 2.292,5.395c2.314,1.271 5.465,1.659 7.497,0.333c1.051,-0.685 2.49,-2.859 3.32,-5.27c0.696,-2.023 1.011,-4.273 -0.141,-5.965c-0.583,-0.856 -1.536,-1.52 -2.922,-1.965Z"/><path d="M998.279,208.111c1.683,-0.644 -11.414,-0.03 -11.289,18.179c0.053,7.754 8.356,12.517 13.175,7.207c1.739,-1.916 7.045,-7.859 5.304,-18.616c-0.893,-5.521 -5.096,-7.02 -7.19,-6.77Z" style="fill:#060000;"/><path d="M998.972,206.183c2.841,0.124 7.371,2.131 8.384,8.392c1.89,11.679 -3.888,18.126 -5.776,20.206c-5.954,6.56 -16.437,1.101 -16.502,-8.479c-0.099,-14.555 7.68,-18.834 11.195,-19.906c1.291,-0.394 2.233,-0.354 2.524,-0.287l0.174,0.074Zm-1.213,3.768c-2.469,0.575 -8.942,3.961 -8.858,16.326c0.04,5.937 6.158,10.002 9.848,5.936c1.59,-1.752 6.424,-7.19 4.833,-17.026c-0.656,-4.054 -3.539,-5.361 -5.076,-5.177c-0.258,0.031 -0.511,0.009 -0.747,-0.058Z"/><path d="M971.741,263.772c-0.627,-0.728 -2.449,-1.707 -5.805,-2.192c-4.367,-0.631 -8.093,3.478 -9.399,7.63c-0.054,0.171 -4.145,10.857 -0.339,16.631c1.65,2.503 10.081,7.163 14.99,-2.793c8.15,-16.529 3.131,-18.168 -2.83,-20.944"/><path d="M973.062,262.386c1.743,1.096 3.118,2.423 3.807,4.405c1.07,3.078 0.475,8.092 -3.968,17.102c-1.729,3.507 -3.885,5.42 -6.032,6.37c-3.15,1.393 -6.397,0.756 -8.795,-0.482c-1.652,-0.853 -2.886,-1.997 -3.474,-2.888c-1.747,-2.651 -2.126,-6.188 -1.849,-9.51c0.379,-4.556 1.927,-8.639 1.961,-8.747c1.573,-4.996 6.241,-9.707 11.496,-8.948c3.867,0.559 5.996,1.816 6.853,2.698Zm-2.222,3.072c-0.045,-0.025 -0.09,-0.052 -0.134,-0.079c-0.955,-0.553 -2.04,-1.023 -3.156,-1.543c-0.02,-0.009 -0.04,-0.019 -0.06,-0.029c-0.534,-0.124 -1.142,-0.237 -1.828,-0.336c-1.614,-0.233 -3.087,0.47 -4.3,1.554c-1.39,1.244 -2.449,2.999 -3.003,4.758c-0.031,0.098 -1.454,3.791 -1.798,7.917c-0.205,2.467 -0.066,5.12 1.231,7.089c0.336,0.51 1.09,1.107 2.036,1.595c1.499,0.774 3.524,1.254 5.494,0.383c1.51,-0.668 2.933,-2.098 4.149,-4.564c1.953,-3.96 3.128,-7.024 3.686,-9.44c0.476,-2.06 0.5,-3.563 0.099,-4.717c-0.348,-1 -1.035,-1.673 -1.872,-2.242c-0.176,-0.12 -0.358,-0.235 -0.546,-0.346Z"/><path d="M995.386,282.765c-0.582,0.22 -3.533,3.378 -5.388,9.952c-2.957,10.483 13.819,16.156 15.854,-4.284c0.059,-0.588 1.522,-6.833 -3.673,-8.464c-1.859,-0.584 -3.545,0.1 -4.949,1.205c-2.117,1.666 -3.071,2.846 -3.529,3.527"/><path d="M994.154,281.299c0.514,-0.487 1.137,-1.03 1.896,-1.627c1.895,-1.491 4.194,-2.314 6.703,-1.527c3.477,1.091 4.755,3.702 5.124,6.163c0.31,2.065 -0.089,3.984 -0.122,4.314c-0.922,9.262 -4.807,13.628 -8.573,14.969c-6.344,2.258 -13.28,-3.392 -11.023,-11.393c1.403,-4.972 3.411,-8.122 4.69,-9.654c0.496,-0.594 0.953,-0.994 1.304,-1.245Zm2.592,2.81c-0.025,0.024 -0.05,0.048 -0.075,0.072c-0.345,0.333 -0.621,0.628 -0.842,0.886c-0.92,1.251 -2.876,4.218 -3.99,8.169c-1.292,4.58 2.43,8.046 6.062,6.753c2.885,-1.027 5.344,-4.652 6.051,-11.746c0.026,-0.258 0.388,-1.755 0.146,-3.368c-0.183,-1.216 -0.77,-2.543 -2.489,-3.083c-1.21,-0.38 -2.281,0.164 -3.194,0.883c-0.682,0.537 -1.229,1.014 -1.668,1.433Z"/><path d="M958.046,321.834c0,0 -13.813,1.356 -11.985,15.391c1.525,11.708 15.713,8.653 18.882,-6.55c1.129,-5.414 -1.496,-7.478 -2.007,-7.881c-4.516,-3.551 -13.755,3.288 -13.811,3.314"/><path d="M947.655,324.887c0.064,-0.073 0.132,-0.142 0.202,-0.209c4.096,-4.143 10.003,-4.747 10.003,-4.747c0.187,-0.018 0.369,-0.009 0.545,0.024c2.113,-0.243 4.137,0.097 5.714,1.337c0.638,0.501 4.104,3.023 2.697,9.773c-1.77,8.492 -6.778,13.471 -11.396,14.812c-2.664,0.774 -5.255,0.411 -7.31,-1.036c-1.953,-1.375 -3.476,-3.784 -3.943,-7.37c-0.624,-4.79 0.408,-8.271 2.082,-10.813c0.429,-0.651 0.903,-1.239 1.407,-1.772Zm2.818,2.571c-0.37,0.393 -0.718,0.826 -1.033,1.304c-1.269,1.927 -1.956,4.584 -1.484,8.216c1.261,9.684 12.494,5.882 15.115,-6.693c0.851,-4.082 -0.932,-5.685 -1.317,-5.988c-1.331,-1.046 -3.225,-0.655 -5.014,-0.063c-2.679,0.887 -5.185,2.486 -6.268,3.224Z"/><path d="M979.537,360.283c-12.553,-9.014 -18.43,8.582 -18.564,12.66c-0.149,4.533 5.053,7.281 10.858,2.456c0.529,-0.44 9.302,-9.277 8.779,-13.24c-0.425,-3.226 -7.536,-4.391 -8.201,-4.402"/><path d="M981.156,359.266c0.741,0.769 1.221,1.664 1.35,2.644c0.198,1.503 -0.511,3.611 -1.83,5.77c-2.568,4.206 -7.232,8.865 -7.623,9.19c-3.569,2.967 -7.004,3.43 -9.473,2.63c-2.815,-0.912 -4.622,-3.44 -4.518,-6.618c0.059,-1.794 1.086,-5.979 3.231,-9.705c2.048,-3.556 5.108,-6.62 9.055,-7.228c2.65,-0.408 5.765,0.242 9.303,2.783c0.207,0.149 0.376,0.332 0.504,0.536Zm-8.728,0.405c-0.168,0.011 -0.334,0.029 -0.497,0.055c-2.823,0.435 -4.859,2.813 -6.324,5.357c-1.757,3.052 -2.675,6.454 -2.723,7.923c-0.054,1.642 1.051,2.9 2.703,3.012c1.448,0.098 3.18,-0.557 5.022,-2.088c0.35,-0.291 4.505,-4.477 6.804,-8.242c0.768,-1.258 1.418,-2.403 1.302,-3.279c-0.029,-0.222 -0.194,-0.39 -0.372,-0.558c-0.378,-0.358 -0.884,-0.649 -1.424,-0.902c-1.811,-0.849 -4.02,-1.244 -4.492,-1.279Z"/><path d="M901.129,383.42c-2.088,1.415 -10.351,7.313 -6.951,13.705c5.355,10.069 26.608,-2.576 19.858,-12.361c-4.542,-6.584 -15.112,-2.736 -19.601,5.847"/><path d="M896.439,384.704c1.074,-1.07 2.239,-1.994 3.451,-2.752c0.059,-0.04 0.115,-0.078 0.167,-0.114c0.091,-0.062 0.185,-0.114 0.282,-0.158c1.93,-1.134 3.961,-1.849 5.911,-2.072c3.68,-0.421 7.109,0.81 9.36,4.072c4.008,5.81 0.133,12.633 -5.97,16.344c-6.109,3.716 -13.967,3.984 -17.149,-2c-1.71,-3.215 -1.14,-6.333 0.407,-9.028c0.94,-1.637 2.261,-3.101 3.542,-4.291Zm5.846,0.238c-0.027,0.021 -0.055,0.041 -0.084,0.06c-0.631,0.428 -1.879,1.297 -3.157,2.483c-1.126,1.148 -2.125,2.5 -2.916,4.012c-0.125,0.239 -0.293,0.44 -0.491,0.6c-0.477,1.29 -0.539,2.689 0.228,4.131c0.987,1.856 2.733,2.622 4.68,2.679c2.304,0.068 4.866,-0.786 7.108,-2.15c2.236,-1.36 4.169,-3.236 5.15,-5.328c0.841,-1.794 0.918,-3.754 -0.341,-5.579c-1.383,-2.005 -3.516,-2.703 -5.778,-2.444c-1.459,0.167 -2.963,0.7 -4.399,1.537Z"/><path d="M921.037,411.362c-17.373,9.347 -4.089,21.995 3.098,15.54c5.858,-5.261 5.096,-15.011 0.322,-15.791c-3.837,-0.626 -7.267,2.052 -9.111,3.956c-0.739,0.764 -1.545,2.422 -1.698,2.674"/><path d="M911.9,416.968c0.033,-0.075 0.072,-0.149 0.116,-0.221c0.174,-0.285 1.119,-2.144 1.957,-3.01c1.401,-1.446 3.605,-3.211 6.205,-4.084c0.2,-0.101 0.411,-0.163 0.622,-0.189c1.255,-0.342 2.59,-0.464 3.964,-0.239c2.638,0.431 4.569,2.689 5.203,5.896c0.796,4.026 -0.491,9.553 -4.556,13.204c-5.491,4.931 -13.778,1.111 -14.75,-5.309c-0.274,-1.81 0.025,-3.897 1.238,-6.047Zm9.945,-3.871c-3.287,1.783 -5.362,3.642 -6.469,5.46c-0.043,0.083 -0.075,0.145 -0.095,0.178c-0.023,0.037 -0.047,0.074 -0.071,0.109c-0.312,0.563 -0.532,1.121 -0.667,1.672c-1.162,4.733 4.662,8.244 8.316,4.964c2.965,-2.662 3.941,-6.681 3.36,-9.618c-0.285,-1.441 -0.883,-2.671 -2.069,-2.864c-0.798,-0.13 -1.571,-0.077 -2.305,0.1Z"/><path d="M853.903,431.087c-12.176,11.79 0.12,24.31 12.151,11.789c2.789,-2.902 9.207,-12.889 -5.488,-14.201c-5.173,-0.462 -7.116,2.427 -9.659,6.027"/><path d="M850.593,431.872c2.476,-3.301 4.97,-5.563 10.143,-5.101c7.082,0.632 9.891,3.31 10.74,6.072c0.543,1.763 0.316,3.706 -0.36,5.541c-0.892,2.421 -2.551,4.639 -3.684,5.817c-7.057,7.344 -14.295,6.818 -17.88,3.253c-3.22,-3.202 -3.991,-9.351 1.04,-15.582Zm5.039,0.03c-0.096,0.203 -0.229,0.393 -0.4,0.558c-0.706,0.684 -1.323,1.369 -1.854,2.048c-0.297,0.418 -0.597,0.853 -0.91,1.297c-0.017,0.023 -0.033,0.046 -0.051,0.069c-2.272,3.632 -2.098,6.951 -0.169,8.87c2.531,2.517 7.445,1.994 12.428,-3.191c0.875,-0.911 2.164,-2.619 2.853,-4.49c0.378,-1.027 0.597,-2.108 0.293,-3.095c-0.229,-0.744 -0.786,-1.393 -1.726,-1.932c-1.271,-0.729 -3.12,-1.226 -5.701,-1.456c-2.143,-0.191 -3.59,0.356 -4.764,1.324Z"/><path d="M786.825,413.599c-35.732,1.218 -29.673,20.422 -17.907,25.825c4.011,1.842 35.194,9.236 40.108,-9.99c1.636,-6.402 4.145,-15.578 -23.864,-15.765"/><path d="M784.95,411.769c0.074,-0.006 0.15,-0.01 0.225,-0.012c0.519,-0.026 1.047,-0.05 1.585,-0.068c0.243,-0.008 0.477,0.029 0.694,0.105c7.463,0.192 12.631,1.077 16.173,2.356c2.9,1.047 4.8,2.385 6.036,3.829c3.124,3.649 2.173,8.183 1.215,11.93c-2.174,8.506 -8.915,12.4 -16.604,13.761c-10.9,1.93 -23.638,-1.353 -26.153,-2.508c-6.731,-3.091 -11.604,-10.265 -9.909,-16.705c0.854,-3.244 3.332,-6.42 8.258,-8.79c4.147,-1.996 10.144,-3.455 18.48,-3.897Zm0.2,3.814c-7.669,0.404 -13.202,1.689 -17.023,3.528c-3.621,1.742 -5.591,3.933 -6.219,6.318c-1.268,4.819 2.771,9.946 7.808,12.258c2.298,1.055 13.937,3.98 23.892,2.218c6.214,-1.1 11.81,-4.068 13.567,-10.943c0.561,-2.197 1.372,-4.767 0.45,-7.08c-0.655,-1.641 -2.246,-3.036 -5.295,-4.136c-3.622,-1.308 -9.079,-2.108 -17.179,-2.162Z"/><path d="M807.844,454.57c-13.798,11.311 7.197,20.399 11.71,10.194c4.19,-9.474 -11.484,-18.056 -16.304,-3.299"/><path d="M807.647,452.669c0.479,-0.249 0.965,-0.45 1.453,-0.608c7.422,-2.403 15.831,5.269 12.202,13.476c-1.953,4.416 -6.353,6.004 -10.581,5.481c-4.192,-0.519 -8.065,-3.172 -9.121,-6.794c-0.891,-3.054 0.039,-7.04 5.032,-11.133c0.301,-0.247 0.655,-0.386 1.015,-0.423Zm-2.524,9.222c-0.022,0.436 0.029,0.857 0.147,1.263c0.668,2.288 3.273,3.743 5.921,4.071c2.612,0.323 5.408,-0.505 6.615,-3.233c2.236,-5.056 -2.955,-9.773 -7.528,-8.293c-2.091,0.677 -3.957,2.64 -5.155,6.192Z"/><path d="M738.413,439.43c-6.154,-0.852 -15.416,-3.53 -16.952,7.128c-1.082,7.507 18.741,14.653 22.027,4.934c4.104,-12.137 -6.672,-12.293 -7.242,-12.365"/><path d="M736.927,437.273c0.347,0.036 0.864,0.101 1.481,0.226c0.09,0.013 0.179,0.026 0.268,0.038c0.177,0.025 0.345,0.073 0.501,0.141c1.643,0.429 3.695,1.282 5.157,3.002c1.81,2.13 2.928,5.623 0.966,11.425c-1.966,5.815 -8.733,7.024 -14.992,5.217c-3.516,-1.015 -6.79,-2.934 -8.733,-5.186c-1.554,-1.802 -2.295,-3.832 -2.005,-5.85c0.553,-3.838 2.027,-6.192 3.898,-7.64c1.881,-1.456 4.231,-2.014 6.731,-2.055c2.232,-0.037 4.589,0.345 6.728,0.682Zm1.395,4.067c-0.056,-0.003 -0.113,-0.008 -0.17,-0.016c-0.587,-0.081 -1.204,-0.181 -1.84,-0.284c-0.157,-0.008 -0.264,-0.011 -0.304,-0.016c-0.144,-0.018 -0.282,-0.052 -0.413,-0.1c-1.731,-0.277 -3.573,-0.54 -5.332,-0.511c-1.644,0.027 -3.217,0.299 -4.454,1.256c-1.247,0.965 -2.085,2.604 -2.454,5.161c-0.142,0.986 0.356,1.928 1.115,2.808c1.526,1.769 4.137,3.213 6.899,4.01c2.277,0.657 4.67,0.879 6.675,0.375c1.669,-0.42 3.041,-1.384 3.636,-3.143c1.322,-3.911 0.962,-6.289 -0.258,-7.725c-0.865,-1.018 -2.054,-1.542 -3.098,-1.815Z"/><path d="M686.704,404.649c-1.074,-0.729 -11.674,-10.328 -16.896,-6.589c-9.789,7.008 4.325,28.194 15.304,24.623c7.954,-2.587 7.189,-10.276 2.547,-16.78c-0.951,-1.333 -2.926,-2.578 -4.161,-3.757c-0.279,-0.267 -8.538,-4.442 -8.829,-4.697"/><path d="M675.036,395.574c0.047,0.01 0.093,0.021 0.14,0.033c0.319,0.077 0.64,0.167 0.963,0.27c3.021,0.963 6.209,3.066 8.498,4.759c0.097,0.063 0.16,0.107 0.182,0.129c0.01,0.01 0.02,0.019 0.031,0.029c1.527,1.139 2.617,2.064 2.93,2.276c0.324,0.22 0.559,0.522 0.696,0.86c0.281,0.285 0.533,0.573 0.74,0.864c3.176,4.45 4.593,9.431 3.393,13.305c-0.862,2.784 -2.993,5.131 -6.904,6.403c-2.632,0.856 -5.417,0.567 -8.091,-0.577c-3.666,-1.57 -7.131,-4.787 -9.549,-8.552c-4.264,-6.64 -5.044,-14.803 0.632,-18.865c1.759,-1.259 3.98,-1.471 6.34,-0.933Zm7.286,8.088l-0.071,-0.041c-1.332,-0.753 -6.343,-3.346 -8.175,-4.348c-0.272,-0.059 -0.541,-0.104 -0.806,-0.131c-0.866,-0.09 -1.681,-0.004 -2.348,0.473c-1.893,1.355 -2.577,3.419 -2.485,5.674c0.106,2.609 1.2,5.456 2.845,8.017c1.995,3.107 4.812,5.808 7.837,7.103c1.787,0.765 3.644,1.029 5.404,0.456c1.871,-0.609 3.16,-1.532 3.903,-2.727c0.858,-1.381 0.967,-3.075 0.604,-4.859c-0.419,-2.06 -1.467,-4.224 -2.925,-6.266c-0.855,-1.198 -2.619,-2.29 -3.782,-3.352Z"/><path d="M634.859,380.714c-4.806,-2.666 -17.113,-10.827 -19.814,0.392c-3.396,14.106 21.656,23.649 25.735,10.844c0.258,-0.809 1.532,-4.145 -1.361,-7.764c-2.687,-3.361 -9.365,-6.157 -9.535,-6.231"/><path d="M630.568,376.169c0.027,0.011 0.055,0.022 0.082,0.034c0.183,0.08 7.36,3.158 10.262,6.789c3.555,4.447 2.006,8.542 1.689,9.537c-1.942,6.098 -7.777,8.142 -13.944,7.081c-8.764,-1.508 -17.769,-9.406 -15.47,-18.952c0.67,-2.785 1.882,-4.57 3.337,-5.678c2.199,-1.674 5.075,-1.864 8.088,-1.135c2.001,0.484 4.069,1.375 5.956,2.324Zm4.116,6.448c-0.257,-0.023 -0.513,-0.099 -0.752,-0.232c-1.191,-0.661 -2.859,-1.682 -4.724,-2.642c-0.049,-0.021 -0.08,-0.033 -0.089,-0.037c-0.097,-0.043 -0.189,-0.092 -0.276,-0.148c-1.636,-0.823 -3.407,-1.58 -5.13,-1.997c-1.806,-0.437 -3.556,-0.543 -4.874,0.461c-0.889,0.677 -1.526,1.828 -1.936,3.531c-0.857,3.56 0.493,6.758 2.821,9.223c2.49,2.636 6.085,4.465 9.58,5.067c4.195,0.722 8.332,-0.325 9.653,-4.474c0.199,-0.624 1.198,-3.199 -1.033,-5.99c-0.801,-1.002 -1.993,-1.944 -3.242,-2.761Z"/><path d="M630.287,331.384c-0.495,-0.322 -4.253,-2.946 -7.059,-4.097c-15.788,-6.477 -14.879,18.343 4.135,23.53c7.152,1.951 10.054,-7.718 7.841,-13.169c-2.697,-6.643 -9.316,-9.061 -9.598,-9.192"/><path d="M626.413,326.724c0.311,0.145 7.581,2.863 10.562,10.206c1.287,3.171 1.112,7.571 -0.45,10.893c-1.738,3.695 -5.037,6.102 -9.665,4.839c-12.619,-3.442 -17.807,-14.87 -16.344,-21.78c0.577,-2.723 2.112,-4.833 4.48,-5.881c2.172,-0.961 5.168,-1.037 8.957,0.518c0.777,0.319 1.624,0.745 2.46,1.205Zm3.308,6.487c-0.165,-0.051 -0.326,-0.126 -0.478,-0.225c-0.345,-0.225 -2.345,-1.627 -4.444,-2.796c-0.08,-0.041 -0.158,-0.084 -0.233,-0.129c-0.703,-0.385 -1.411,-0.737 -2.065,-1.006c-2.528,-1.037 -4.51,-1.2 -5.959,-0.558c-1.254,0.555 -1.981,1.735 -2.286,3.177c-1.183,5.585 3.409,14.517 13.61,17.299c2.524,0.689 4.252,-0.763 5.2,-2.778c1.123,-2.388 1.293,-5.548 0.367,-7.827c-0.902,-2.222 -2.301,-3.909 -3.712,-5.157Z"/><path d="M596.546,318.022c-0.646,-1.88 -3.341,-10.796 -11.533,-14.142c-13.339,-5.449 -13.045,26.457 4.702,29.121c1.788,0.268 5.025,-0.882 6.458,-4.362c3.176,-7.712 -1.5,-14.982 -1.529,-15.035"/><path d="M597.407,314.828c0.264,0.609 0.545,1.334 0.803,2.151c0.056,0.164 0.104,0.305 0.144,0.422c0.039,0.115 0.067,0.231 0.084,0.347c0.858,3.101 1.282,7.298 -0.497,11.619c-1.866,4.53 -6.182,5.873 -8.51,5.524c-11.741,-1.762 -16.737,-15.016 -15.532,-24.132c0.53,-4.01 2.28,-7.183 4.864,-8.58c1.855,-1.003 4.185,-1.207 6.972,-0.069c6.775,2.767 10.141,8.999 11.671,12.718Zm-2.611,3.962c-0.021,-0.048 -0.04,-0.097 -0.057,-0.147c-0.145,-0.423 -0.398,-1.239 -0.809,-2.276c-0.511,-1.159 -0.963,-1.849 -0.971,-1.865c-0.123,-0.231 -0.193,-0.475 -0.216,-0.72c-1.559,-2.944 -4.168,-6.383 -8.451,-8.133c-1.483,-0.606 -2.721,-0.641 -3.708,-0.107c-1.679,0.908 -2.548,3.112 -2.893,5.718c-0.981,7.42 2.753,18.416 12.309,19.851c1.25,0.188 3.406,-0.767 4.407,-3.199c1.39,-3.374 1.075,-6.652 0.389,-9.122Z"/><path d="M608.684,265.674c-8.761,22.18 8.267,23.225 13.792,20.063c5.716,-3.272 5.358,-13.519 3.262,-18.891c-0.634,-1.626 -14.518,-14.657 -18.268,2.284"/><path d="M605.604,268.717c1.335,-6.029 3.971,-8.71 6.72,-9.664c3.237,-1.124 6.967,0.16 9.918,2.062c1.901,1.226 3.464,2.66 4.317,3.622c0.545,0.616 0.852,1.134 0.961,1.415c1.37,3.512 2.057,8.937 1.044,13.485c-0.743,3.335 -2.397,6.19 -5.137,7.759c-1.925,1.102 -5.046,1.805 -8.207,1.497c-3.239,-0.316 -6.485,-1.677 -8.593,-4.527c-2.258,-3.053 -3.297,-8.013 -1.022,-15.649Zm4.992,-3.021c-0.002,0.227 -0.046,0.457 -0.134,0.68c-0.44,1.115 -0.814,2.169 -1.125,3.167c-0.027,0.101 -0.057,0.199 -0.091,0.295c-1.8,5.95 -1.337,9.834 0.453,12.254c1.434,1.939 3.687,2.781 5.891,2.996c2.282,0.223 4.546,-0.214 5.936,-1.01c1.833,-1.049 2.808,-3.043 3.305,-5.273c0.836,-3.751 0.285,-8.216 -0.83,-11.152c-0.197,-0.212 -2.02,-2.158 -3.831,-3.325c-1.981,-1.277 -4.421,-2.418 -6.593,-1.664c-1.174,0.408 -2.173,1.368 -2.982,3.032Z"/><path d="M564.852,248.771c-5.322,16.812 6.339,20.55 11.371,11.271c0.53,-0.978 1.567,-3.552 2.063,-6.467c0.689,-4.048 0.336,-8.753 -3.865,-10.747c-8.637,-4.1 -10.476,9.062 -10.616,10.19"/><path d="M561.898,252.915c0.002,-0.044 0.006,-0.088 0.012,-0.133c0.076,-0.617 0.628,-4.524 2.332,-7.72c1.19,-2.231 2.941,-4.081 5.281,-4.705c1.587,-0.423 3.481,-0.319 5.72,0.743c5.043,2.394 5.757,7.935 4.929,12.795c-0.542,3.183 -1.689,5.99 -2.267,7.057c-3.187,5.877 -8.646,7.215 -12.292,4.839c-2.719,-1.772 -4.782,-6.037 -3.713,-12.877Zm4.866,-4.106c-0.004,0.179 -0.032,0.36 -0.089,0.539c-0.444,1.401 -0.763,2.703 -0.971,3.904c-0.009,0.057 -0.018,0.114 -0.029,0.17c-0.334,2.016 -0.351,3.747 -0.113,5.196c0.316,1.916 1.063,3.271 2.136,3.97c2.117,1.379 4.995,-0.047 6.845,-3.459c0.481,-0.888 1.409,-3.23 1.859,-5.876c0.552,-3.239 0.562,-7.104 -2.8,-8.7c-1.217,-0.578 -2.232,-0.733 -3.095,-0.503c-1.334,0.356 -2.215,1.538 -2.893,2.81c-0.336,0.63 -0.617,1.294 -0.851,1.947Z"/><path d="M577.204,209.253c-0.382,2.279 -3.503,14.866 6.401,16.479c9.308,1.516 15.193,-12.847 10.256,-19.535c-1.592,-2.156 -13.91,-12.469 -16.917,4.917"/><path d="M575.633,208.164c1.164,-4.319 3.037,-6.668 5.021,-7.835c2.421,-1.424 5.168,-1.253 7.688,-0.296c3.39,1.287 6.293,3.994 7.057,5.028c2.846,3.854 2.728,9.917 0.402,14.801c-2.389,5.017 -6.992,8.654 -12.503,7.756c-6.024,-0.981 -8.151,-5.242 -8.65,-9.662c-0.435,-3.859 0.468,-7.809 0.671,-9.02c0.048,-0.287 0.158,-0.549 0.314,-0.773Zm3.025,3.795c-0.239,1.548 -0.437,3.572 -0.211,5.569c0.321,2.847 1.585,5.685 5.465,6.317c3.798,0.619 6.79,-2.168 8.437,-5.626c1.71,-3.591 2.066,-8.053 -0.026,-10.887c-0.574,-0.777 -2.791,-2.758 -5.338,-3.725c-1.439,-0.546 -3.011,-0.795 -4.393,0.017c-1.721,1.012 -3.003,3.407 -3.765,7.815c-0.032,0.185 -0.09,0.36 -0.169,0.52Z"/><path d="M752.12,340.838c22.283,-13.301 23.817,-14.124 34.705,-5.202c21.886,-11.561 23.006,-3.906 38.706,5.399c13.945,8.265 33.067,4.319 27.901,13.45c-6.566,11.605 -44.402,-6.357 -56.465,-3.29c-10.392,2.643 -10.536,1.844 -20.906,-0.893c-22.792,-6.015 -22.873,9.18 -45.94,3.968c-6.216,-1.404 -5.201,-10.167 7.658,-9.81c7.475,0.207 10.09,-1.475 14.34,-3.623Z"/><path d="M751.196,339.163c8.102,-4.836 13.498,-8.031 17.593,-9.731c3.05,-1.267 5.463,-1.741 7.693,-1.554c3.344,0.28 6.34,2.094 10.571,5.484c8.593,-4.42 14.079,-5.808 18.504,-5.403c3.594,0.329 6.552,1.815 9.884,4.029c3.018,2.005 6.389,4.631 11.064,7.402c8.206,4.864 18.256,5.359 23.876,6.957c3.079,0.875 5.003,2.251 5.6,4.054c0.425,1.283 0.299,2.93 -0.886,5.024c-1.231,2.175 -3.3,3.578 -6.048,4.304c-2.376,0.628 -5.304,0.744 -8.577,0.488c-8.555,-0.67 -19.633,-3.886 -28.963,-5.895c-5.809,-1.251 -10.887,-2.084 -14.069,-1.275c-10.868,2.764 -11.02,1.965 -21.865,-0.897c-10.787,-2.847 -16.199,-0.668 -21.644,1.599c-6.041,2.515 -12.118,5.122 -24.229,2.385c-2.64,-0.596 -4.287,-2.218 -4.907,-4.059c-0.642,-1.905 -0.245,-4.153 1.566,-6.043c1.892,-1.975 5.572,-3.647 11.475,-3.483c6.965,0.193 9.419,-1.39 13.364,-3.387Zm1.786,3.381c-4.52,2.284 -7.306,4.048 -15.255,3.827c-2.861,-0.079 -5.067,0.318 -6.674,1.024c-1.283,0.563 -2.138,1.294 -2.523,2.118c-0.589,1.262 0.324,2.511 2.013,2.892c10.956,2.476 16.452,0.09 21.917,-2.186c6.06,-2.524 12.084,-4.935 24.089,-1.766c9.895,2.612 10.031,3.41 19.947,0.889c3.09,-0.786 7.769,-0.352 13.186,0.702c7.603,1.478 16.77,4.108 24.843,5.53c4.291,0.755 8.258,1.174 11.467,0.83c2.646,-0.284 4.741,-1.032 5.776,-2.86c0.471,-0.832 0.753,-1.431 0.584,-1.94c-0.092,-0.277 -0.349,-0.455 -0.653,-0.643c-0.609,-0.377 -1.415,-0.666 -2.364,-0.936c-5.84,-1.661 -16.251,-2.291 -24.779,-7.346c-4.744,-2.812 -8.168,-5.472 -11.231,-7.507c-2.748,-1.826 -5.153,-3.135 -8.117,-3.406c-4.128,-0.378 -9.224,1.193 -17.491,5.56c-0.68,0.359 -1.509,0.276 -2.104,-0.212c-3.948,-3.235 -6.47,-5.178 -9.451,-5.428c-1.717,-0.144 -3.559,0.3 -5.907,1.275c-3.992,1.658 -9.246,4.795 -17.156,9.517l-0.118,0.065Z"/><path d="M787.379,375.297c15.761,-1.933 15.374,-3.35 26.606,-7.481c10.51,-3.865 13.476,4.421 4.891,10.962c-2.037,1.552 -19.467,10.038 -32.594,8.485c-39.167,-4.631 -32.934,-17.255 -30.403,-18.564c9.467,-4.898 12.082,5.991 31.5,6.597Z"/><path d="M787.294,373.382l0.007,-0.001c15.354,-1.893 15.007,-3.307 26.024,-7.358c6.653,-2.446 10.792,-0.395 12.035,2.65c1.196,2.93 -0.099,7.643 -5.327,11.626c-2.124,1.618 -20.292,10.481 -33.977,8.863c-14.514,-1.716 -22.956,-4.556 -27.715,-7.478c-3.618,-2.221 -5.287,-4.579 -5.953,-6.627c-1.333,-4.102 1.183,-7.316 2.611,-8.055c4.448,-2.302 7.609,-1.682 11.26,-0.009c4.489,2.057 9.866,6.007 21.033,6.388Zm0.026,3.826c-10.112,-0.316 -15.852,-3.296 -20.294,-5.573c-3.651,-1.871 -6.216,-3.334 -10.268,-1.238c-0.156,0.081 -0.302,0.304 -0.458,0.567c-0.607,1.022 -0.791,2.735 0.655,4.601c1.075,1.387 2.916,2.797 5.823,4.164c4.784,2.25 12.267,4.281 23.729,5.636c12.568,1.486 29.261,-6.622 31.211,-8.108c1.851,-1.41 3.103,-2.894 3.763,-4.305c0.498,-1.066 0.661,-2.052 0.342,-2.835c-0.271,-0.665 -0.922,-1.081 -1.818,-1.267c-1.359,-0.281 -3.157,-0.05 -5.359,0.76c-11.411,4.196 -11.021,5.62 -27.033,7.584c-0.097,0.012 -0.195,0.016 -0.292,0.013Z"/><path d="M789.068,296.568c8.725,-1.714 8.671,-1.683 17.049,-4.85c8.686,-3.283 16.692,4.51 20.618,-6.144c0.296,-0.804 4.093,-11.107 9.998,-3.844c4.099,5.041 -6.091,22.799 -20.09,20.519c-1.156,-0.188 -2.338,-0.513 -3.54,-0.993c-4.05,-1.617 -13.316,22.265 -41.957,0.543c-7.682,1.121 -19.397,4.032 -24.705,-4.823c-5.063,-8.446 0.05,-15.73 4.568,-12.847c3.903,2.49 2.103,11.55 10.267,9.294c10.518,-2.907 10.942,-3.241 20.794,1.401c3.698,1.742 3.793,1.153 7.857,1.676l-0.859,0.07Z"/><path d="M789.531,294.254c7.669,-1.507 7.903,-1.586 15.816,-4.577c3.833,-1.449 7.541,-1.017 10.894,-0.64c2.207,0.248 4.215,0.586 5.867,-0.43c1.042,-0.641 1.862,-1.836 2.581,-3.788c0.142,-0.384 0.992,-2.67 2.421,-4.585c1.175,-1.575 2.743,-2.844 4.517,-3.174c1.916,-0.357 4.294,0.211 6.8,3.293c1.6,1.967 1.85,5.413 0.472,9.207c-2.755,7.586 -11.683,16.62 -22.605,14.841c-1.177,-0.192 -2.379,-0.508 -3.599,-0.966c-0.227,0.145 -0.66,0.43 -0.98,0.694c-0.756,0.622 -1.621,1.426 -2.622,2.288c-3.235,2.786 -7.76,6.08 -14.193,6.651c-6.104,0.541 -14.045,-1.365 -24.331,-8.977c-3.808,0.587 -8.425,1.443 -12.778,1.215c-5.269,-0.277 -10.147,-2.085 -13.219,-7.209c-4.37,-7.291 -2.013,-13.841 1.359,-15.918c1.861,-1.147 4.1,-1.263 6.254,0.11c1.928,1.23 2.904,3.652 3.816,6.064c0.462,1.221 0.811,2.498 1.882,3.034c0.662,0.331 1.554,0.28 2.815,-0.068c5.594,-1.546 8.516,-2.348 11.338,-2.206c2.86,0.144 5.655,1.233 10.968,3.736c3.168,1.493 3.458,1.074 6.531,1.405Zm1.43,4.166c-0.265,0.143 -0.563,0.232 -0.879,0.254l-1.013,0.076c-0.379,0 -0.738,-0.097 -1.05,-0.269c-2.88,-0.269 -3.434,-0.063 -6.878,-1.685c-4.54,-2.139 -6.883,-3.203 -9.327,-3.325c-2.483,-0.125 -5.032,0.693 -9.956,2.054c-2.784,0.769 -4.712,0.438 -6.13,-0.341c-1.444,-0.792 -2.429,-2.124 -3.163,-3.715c-0.535,-1.161 -0.938,-2.471 -1.452,-3.649c-0.325,-0.745 -0.652,-1.454 -1.276,-1.853c-0.792,-0.505 -1.616,-0.241 -2.189,0.427c-1.549,1.805 -1.733,5.459 0.666,9.46c2.236,3.731 5.869,4.894 9.705,5.095c4.406,0.231 9.096,-0.767 12.813,-1.309c0.579,-0.084 1.167,0.067 1.633,0.421c10.696,8.112 18.435,9.599 24.189,8.335c5.727,-1.258 9.37,-5.142 11.862,-7.276c1.027,-0.879 1.93,-1.514 2.692,-1.822l0.701,-0.218l0.818,-0.084l0.594,0.061l0.592,0.174c1.047,0.418 2.075,0.702 3.082,0.866c7.429,1.21 13.571,-4.092 16.573,-9.385c0.979,-1.726 1.626,-3.46 1.834,-4.986c0.145,-1.067 0.137,-2.009 -0.36,-2.619c-0.793,-0.976 -1.47,-1.556 -2.142,-1.733c-0.769,-0.203 -1.341,0.368 -1.853,0.934c-1.357,1.5 -2.142,3.694 -2.263,4.021c-1.218,3.306 -2.838,5.118 -4.624,6.135c-1.798,1.024 -3.836,1.254 -6.072,1.125c-3.312,-0.191 -7.177,-1.349 -11.197,0.171c-8.051,3.043 -8.473,3.194 -15.928,4.661Z"/><path d="M839.272,218.132c-1.962,1.396 -4.689,0.936 -6.084,-1.027c-1.396,-1.962 -0.936,-4.689 1.027,-6.084c8.295,-5.899 15.164,-10.435 20.877,-13.926c19.887,-12.151 26.652,-12.133 30.267,-12.238c9.134,-0.265 17.663,1.441 25.17,4.012c0.461,0.158 0.918,0.319 1.372,0.483c16.607,6.015 27.812,16.055 28.623,16.647c1.945,1.42 2.371,4.152 0.952,6.097c-1.42,1.945 -4.152,2.371 -6.097,0.952c-0.751,-0.548 -11.077,-9.922 -26.45,-15.491c-0.406,-0.147 -0.815,-0.291 -1.227,-0.433c-6.59,-2.257 -14.072,-3.778 -22.089,-3.545c-3.121,0.091 -8.799,0.47 -25.97,10.962c-5.574,3.406 -12.276,7.834 -20.369,13.59Z"/><path d="M834.21,220.503c-1.818,-1.58 -2.011,-4.338 -0.431,-6.155c1.58,-1.818 4.338,-2.011 6.155,-0.431c5.374,4.67 17.332,19.275 46.093,18.693c25.754,-0.522 35.83,-13.303 48.753,-25.37c1.76,-1.643 4.523,-1.549 6.167,0.211c1.643,1.76 1.549,4.523 -0.211,6.167c-14.384,13.431 -25.867,27.136 -54.532,27.716c-32.388,0.656 -45.943,-15.572 -51.994,-20.831Z"/><path d="M840.096,198.632c-1.736,1.669 -4.5,1.615 -6.169,-0.121c-1.669,-1.736 -1.615,-4.5 0.121,-6.169c15.158,-14.573 26.977,-27.256 61.236,-26.331c31.067,0.839 42.534,10.739 53.36,21.624c1.698,1.707 1.691,4.472 -0.016,6.17c-1.707,1.698 -4.472,1.691 -6.17,-0.016c-9.608,-9.66 -19.839,-18.31 -47.409,-19.055c-30.799,-0.831 -41.325,10.797 -54.953,23.899Z"/><path d="M810.576,255.72c4.711,-50.737 3.843,-53.85 23.524,-82.929c0.741,-1.095 1.511,-2.227 2.312,-3.399c2.921,-4.277 19.774,-28.954 56.642,-31.366c35.458,-2.32 37.081,4.544 52.059,13.438c-15.627,-26.108 -63.641,-29.004 -73.224,-27.704c-33.323,4.521 -53.258,29.682 -59.05,48.546c-11.173,36.39 -4.014,75.225 -2.829,81.653" style="fill:#0d0202;"/><path d="M806.233,256.146c-0.244,-0.421 -0.421,-0.89 -0.514,-1.396c-1.215,-6.591 -8.508,-46.41 2.949,-83.725c6.148,-20.024 27.262,-46.789 62.634,-51.588c6.017,-0.816 26.523,-0.138 45.487,6.505c13.059,4.575 25.311,11.994 32.067,23.282c1.026,1.714 0.757,3.906 -0.653,5.321c-1.41,1.415 -3.601,1.692 -5.318,0.672c-14.259,-8.466 -15.792,-15.044 -49.547,-12.836c-34.692,2.27 -50.575,25.448 -53.324,29.473l-2.302,3.384c-19.187,28.348 -18.201,31.423 -22.793,80.886c-0.223,2.398 -2.35,4.164 -4.748,3.941c-2.117,-0.197 -3.741,-1.877 -3.94,-3.918Zm4.873,-44.95c2.771,-14.798 7.364,-23.095 19.381,-40.85l2.322,-3.414c3.094,-4.53 20.917,-30.704 59.96,-33.259c7.481,-0.489 13.525,-0.591 18.536,-0.364c-16.515,-5.26 -33.621,-5.932 -38.83,-5.225c-31.273,4.243 -50.03,27.799 -55.466,45.503c-3.916,12.755 -5.515,25.818 -5.904,37.609Z"/><path d="M909.376,196.781c-0.039,0.298 -1.605,4.046 -1.723,4.766c-1.014,6.194 -5.531,26.774 -23.747,26.136c-21.857,-0.764 -28.43,-16.393 -29.452,-18.804l-0.261,-4.056c18.364,-11.498 23.782,-15.124 55.183,-8.042Zm-30.924,13.346c0.342,0.022 3.115,0.525 5.927,0.182c3.593,-0.439 7.249,-2.26 5.984,-8.229c-3.068,-14.47 -28.327,-0.737 -11.911,8.048Z"/><path d="M911.539,197.066c-0.017,0.132 -0.191,0.736 -0.494,1.524c-0.427,1.11 -1.165,2.862 -1.239,3.31c-0.532,3.252 -1.999,10.275 -5.709,16.407c-3.902,6.45 -10.207,11.909 -20.267,11.557c-23.323,-0.816 -30.294,-17.56 -31.385,-20.133c-0.096,-0.226 -0.153,-0.466 -0.168,-0.711l-0.261,-4.056c-0.051,-0.8 0.34,-1.564 1.019,-1.989c9.473,-5.931 15.633,-9.777 23.448,-11.281c7.782,-1.498 17.244,-0.677 33.373,2.961c1.1,0.248 1.83,1.294 1.683,2.413Zm-5.081,1.303c-7.116,-1.545 -12.791,-2.489 -17.573,-2.858c1.678,1.283 3.006,3.253 3.612,6.115c0.657,3.1 0.18,5.326 -0.793,6.932c-1.471,2.427 -4.241,3.57 -7.06,3.915c-3.005,0.367 -5.969,-0.146 -6.334,-0.17c-0.31,-0.02 -0.613,-0.107 -0.887,-0.253c-4.034,-2.159 -5.884,-4.687 -6.45,-7.006c-0.754,-3.093 0.693,-6.151 3.298,-8.329c-5.694,1.679 -10.77,4.849 -17.817,9.266l0.155,2.389c1.345,3.09 7.83,16.45 27.373,17.133c8.156,0.285 13.218,-4.227 16.381,-9.456c3.356,-5.547 4.655,-11.911 5.136,-14.853c0.059,-0.358 0.522,-1.653 0.958,-2.825Zm-27.309,9.652l0.012,0.004c0.962,0.131 2.947,0.363 4.953,0.117c1.494,-0.183 3.079,-0.56 3.858,-1.845c0.527,-0.869 0.612,-2.089 0.256,-3.766c-0.425,-2.002 -1.374,-3.3 -2.651,-3.972c-2.061,-1.085 -4.754,-0.658 -6.91,0.451c-2.147,1.104 -3.967,2.903 -3.456,5.001c0.339,1.392 1.614,2.713 3.937,4.011Z"/><path d="M767.076,259.834c-1.161,-38.941 0.648,-65.768 0.569,-85.49c-0.134,-33.305 -5.654,-46.351 -39.966,-63.266l3.51,4.139c0,0 38.936,38.001 -0.363,87.021c-12.135,15.137 -64.594,43.142 -91.084,20.638l-3.272,-2.937c0,0 11.783,30.643 55.003,31.904c17.343,0.506 38.728,-12.539 49.965,-22.327c21.419,-18.657 25.136,-46.607 26.295,-52.329"/><path d="M772.011,176.328c0.112,0.553 0.117,1.137 -0.002,1.725c-0.002,0.009 -0.004,0.019 -0.006,0.028c-0.128,19.317 -1.653,45.149 -0.565,81.623c0.072,2.407 -1.824,4.419 -4.231,4.491c-2.407,0.072 -4.419,-1.824 -4.491,-4.231c-0.602,-20.195 -0.407,-37.136 -0.09,-51.52c-4.064,8.323 -9.897,17.023 -18.322,24.362c-11.888,10.355 -34.611,23.934 -52.958,23.398c-46.493,-1.356 -58.948,-34.699 -58.948,-34.699c-0.724,-1.882 -0.063,-4.015 1.597,-5.159c1.661,-1.144 3.889,-1.001 5.389,0.346l3.257,2.921c9.59,8.092 22.963,8.615 36.208,5.811c20.883,-4.422 41.66,-17.292 48.573,-25.915c11.096,-13.84 15.642,-26.713 16.462,-38.001c1.882,-25.913 -15.742,-43.169 -15.742,-43.169c-0.098,-0.096 -0.192,-0.196 -0.28,-0.301l-3.51,-4.139c-1.337,-1.577 -1.384,-3.876 -0.112,-5.506c1.272,-1.63 3.514,-2.143 5.369,-1.229c18.175,8.96 28.595,17.061 34.618,27.167c6.025,10.108 7.711,22.35 7.782,39.996c0.003,0.659 0.003,1.326 0.002,2.001Zm-8.729,0.91c0.004,-0.975 0.005,-1.934 0.001,-2.876c-0.063,-15.66 -1.204,-26.592 -6.551,-35.563c-2.875,-4.824 -6.949,-9.042 -12.609,-13.149c4.9,8.763 9.565,21.348 8.465,36.49c-0.922,12.7 -5.873,27.256 -18.357,42.828c-7.649,9.541 -30.467,24.101 -53.574,28.994c-9.466,2.005 -18.948,2.372 -27.514,0.315c7.9,6.515 20.151,12.672 38.457,13.206c16.338,0.477 36.386,-12.035 46.972,-21.256c19.427,-16.922 23.421,-41.942 24.71,-48.989Z"/></g></g><g transform="matrix(1,0,0,0.980392,0,-33.021908)"><g transform="matrix(311.612673,0,0,311.612673,-18.896387,406.284378)"><path d="M0.061,-0l0,-0.81l0.199,0c0.068,0 0.122,0.009 0.16,0.027c0.038,0.018 0.066,0.045 0.081,0.083c0.016,0.037 0.024,0.086 0.024,0.144l0,0.295c0,0.06 -0.008,0.109 -0.024,0.148c-0.016,0.039 -0.043,0.067 -0.08,0.086c-0.038,0.018 -0.09,0.028 -0.158,0.028l-0.202,-0Zm0.165,-0.115l0.036,0c0.03,0 0.052,-0.005 0.065,-0.015c0.013,-0.01 0.021,-0.024 0.024,-0.043c0.003,-0.019 0.005,-0.043 0.005,-0.071l0,-0.334c0,-0.028 -0.002,-0.05 -0.006,-0.067c-0.004,-0.017 -0.013,-0.03 -0.026,-0.037c-0.013,-0.008 -0.035,-0.012 -0.064,-0.012l-0.034,0l0,0.579Z" style="fill-rule:nonzero;"/></g><g transform="matrix(311.612673,0,0,311.612673,131.368132,406.284378)"><path d="M0.021,-0l0.157,-0.81l0.184,0l0.156,0.81l-0.153,-0l-0.029,-0.178l-0.129,0l-0.03,0.178l-0.156,-0Zm0.202,-0.279l0.096,0l-0.048,-0.326l-0.048,0.326Z" style="fill-rule:nonzero;"/></g><g transform="matrix(311.612673,0,0,311.612673,274.086736,406.284378)"><path d="M0.058,-0l0.014,-0.81l0.175,0l0.101,0.511l0.106,-0.511l0.169,0l0.014,0.81l-0.119,-0l-0.014,-0.549l-0.103,0.549l-0.103,-0l-0.108,-0.553l-0.011,0.553l-0.121,-0Z" style="fill-rule:nonzero;"/></g><g transform="matrix(311.612673,0,0,311.612673,490.657544,406.284378)"></g><g transform="matrix(311.612673,0,0,311.612673,543.631698,406.284378)"></g></g><g transform="matrix(1,0,0,0.980392,0,7.162669)"><g transform="matrix(311.572382,0,0,311.572382,1088.533695,365.296109)"><path d="M0.061,-0l0,-0.81l0.342,0l0,0.112l-0.177,0l0,0.218l0.15,0l0,0.115l-0.15,0l0,0.364l-0.165,-0Z" style="fill-rule:nonzero;"/></g><g transform="matrix(311.572382,0,0,311.572382,1196.026167,365.296109)"><rect x="0.063" y="-0.81" width="0.165" height="0.81" style="fill-rule:nonzero;"/></g><g transform="matrix(311.572382,0,0,311.572382,1261.456367,365.296109)"><path d="M0.061,-0l0,-0.81l0.165,0l0,0.698l0.19,-0l0,0.112l-0.355,-0Z" style="fill-rule:nonzero;"/></g><g transform="matrix(311.572382,0,0,311.572382,1371.441418,365.296109)"><path d="M0.058,-0l0.014,-0.81l0.175,0l0.101,0.511l0.106,-0.511l0.169,0l0.014,0.81l-0.119,-0l-0.014,-0.549l-0.103,0.549l-0.103,-0l-0.108,-0.553l-0.011,0.553l-0.121,-0Z" style="fill-rule:nonzero;"/></g><g transform="matrix(311.572382,0,0,311.572382,1559.698339,365.296109)"><path d="M0.271,0.011c-0.05,0 -0.091,-0.009 -0.125,-0.028c-0.033,-0.018 -0.059,-0.046 -0.076,-0.083c-0.017,-0.037 -0.027,-0.084 -0.029,-0.142l0.142,-0.024c0.001,0.033 0.004,0.061 0.01,0.084c0.006,0.022 0.015,0.039 0.026,0.05c0.012,0.011 0.026,0.016 0.044,0.016c0.021,-0 0.035,-0.007 0.043,-0.02c0.008,-0.013 0.011,-0.029 0.011,-0.046c0,-0.034 -0.008,-0.062 -0.024,-0.085c-0.016,-0.023 -0.038,-0.046 -0.065,-0.069l-0.084,-0.074c-0.03,-0.025 -0.054,-0.054 -0.074,-0.086c-0.019,-0.032 -0.029,-0.071 -0.029,-0.118c0,-0.067 0.02,-0.118 0.059,-0.153c0.039,-0.036 0.093,-0.053 0.16,-0.053c0.041,0 0.074,0.007 0.1,0.02c0.026,0.013 0.046,0.031 0.06,0.053c0.014,0.022 0.024,0.047 0.03,0.073c0.006,0.026 0.01,0.053 0.011,0.079l-0.142,0.02c-0.001,-0.025 -0.003,-0.046 -0.006,-0.065c-0.003,-0.019 -0.009,-0.033 -0.018,-0.044c-0.009,-0.011 -0.022,-0.016 -0.04,-0.016c-0.019,-0 -0.033,0.007 -0.043,0.021c-0.009,0.014 -0.014,0.03 -0.014,0.047c0,0.029 0.007,0.052 0.02,0.071c0.013,0.018 0.031,0.037 0.053,0.057l0.082,0.072c0.034,0.029 0.064,0.063 0.088,0.101c0.024,0.038 0.036,0.084 0.036,0.139c0,0.038 -0.009,0.073 -0.026,0.104c-0.017,0.031 -0.041,0.055 -0.072,0.072c-0.031,0.017 -0.068,0.026 -0.11,0.026Z" style="fill-rule:nonzero;"/></g></g></g></svg>